<?xml version="1.0" encoding="UTF-8"?>
<!DOCTYPE svg PUBLIC "-//W3C//DTD SVG 1.1//EN" "http://www.w3.org/Graphics/SVG/1.1/DTD/svg11.dtd">
<!-- Creator: CorelDRAW 2018 (64 Bit Versión de evaluación) -->
<svg xmlns="http://www.w3.org/2000/svg" xml:space="preserve" width="1421px" height="1073px" version="1.1" style="shape-rendering:geometricPrecision; text-rendering:geometricPrecision; image-rendering:optimizeQuality; fill-rule:evenodd; clip-rule:evenodd"
viewBox="0 0 1421 1073.02"
 xmlns:xlink="http://www.w3.org/1999/xlink">
 <defs>
  <style type="text/css">
   <![CDATA[
    .str0 {stroke:#EE3868;stroke-width:83.33;stroke-miterlimit:2.61313}
    .fil3 {fill:none}
    .fil0 {fill:none;fill-rule:nonzero}
    .fil2 {fill:#FEFEFE}
    .fil1 {fill:#6DCFF6;fill-rule:nonzero}
   ]]>
  </style>
 </defs>
 <g id="Capa_x0020_1">
  <metadata id="CorelCorpID_0Corel-Layer"/>
  <g id="_1686180986528">
   <g>
    <path class="fil0 str0" d="M122.38 138.41c-0.84,26.48 -0.03,49.86 1.32,70.42 2.36,35.89 1.21,78.85 -7.28,128.33 -3.04,17.72 -3.62,27.75 0.26,30.73 4.07,3.13 15.89,2.61 36.69,-1.18 5.16,-0.94 11.37,-1.94 18.01,-2.76 16.54,-2.03 33.12,-5.31 49.14,-10.24 6.23,-4.14 12.73,-6.3 19.61,-5.81 6.89,0.49 12.51,3.1 16.55,8.27 4.04,5.17 5.1,10.92 3.71,17.24 -1.39,6.29 -4.75,12.16 -11.26,15.95 -7.72,4.51 -14.8,6.98 -19.73,9.07 -4.87,2.05 -9.8,3.46 -15.37,4.62 -5.29,1.11 -12.51,2.12 -21.45,3.94 -47.49,9.7 -82.31,11.59 -104.11,4.44 -21.11,-6.93 -28.46,-30.86 -21.99,-72.59 7.04,-45.34 8.71,-85.48 6.89,-120.16 -1.23,-23.43 -2.11,-49.47 -0.93,-78.4 0.28,-6.7 4.81,-12.43 10.34,-17.14 5.33,-4.55 12.05,-7.14 19.07,-7.49 6.89,-0.34 12.46,1.57 16.29,6.11 3.72,4.42 4.46,9.77 4.24,16.65zm175.23 78.3c15.3,-10.66 29.31,-19 43.31,-24.13 13.95,-5.11 31.29,-7.23 51.52,-4.93 23.89,2.72 40.42,15.26 50.34,36.35 9.81,20.87 15.08,44.13 16.55,69.83 1.45,25.32 1.59,46.88 0.27,63.92 0.13,-0.69 0.26,-1.28 0.53,-2.07 0,0.49 0.1,1 0.26,1.38 2.35,5.43 2.14,10.65 -0.26,15.86 -2.37,5.13 -6.58,9.17 -12.85,11.72 -6.31,2.57 -12.6,2.93 -18.28,1.28 -5.85,-1.7 -10.22,-5.21 -12.85,-10.64 -0.28,-0.58 -0.53,-1.18 -0.53,-1.87 -33.51,13.98 -66.65,16.22 -98.94,4.63 -29.72,-10.67 -42.52,-27.98 -38.94,-49.45 3.57,-21.37 17.31,-40.64 40.93,-57.61 23.66,-17.01 51.79,-24.23 83.58,-21.57 -3.98,-12.61 -10.97,-19.92 -20.53,-20.88 -12.96,-1.31 -23.23,0.41 -31.26,3.64 -7.87,3.17 -16.3,7.69 -24.64,13.89 -2,1.49 -4.22,3.17 -6.62,4.53 -5.95,3.37 -12.05,4.49 -18.15,3.45 -5.95,-1.03 -10.73,-3.86 -13.64,-8.47 -3.05,-4.85 -3.54,-10.14 -1.59,-15.57 2.02,-5.6 6.14,-9.36 11.79,-13.29zm114.17 108.54c-0.39,-10.35 -0.92,-20.59 -1.72,-31.03 -14.04,-2.95 -28.23,-3.27 -42.25,-1.28 -14.45,2.05 -27.4,8.65 -37.09,21.08 -8.74,11.22 -6.48,19.69 4.77,24.52 11,4.72 25.03,5.98 41.19,3.84 16.56,-2.19 28.08,-7.68 35.1,-17.13zm232.98 -172.76c4.98,17.78 11.31,35.45 18.68,52.69 9.85,23.05 17.59,46.08 22.12,69.44 1.69,8.75 2.24,15.37 2.38,19.5 0.13,3.65 0.72,6.52 1.33,8.97 0.58,2.38 1.78,4.96 3.84,8.27 1.92,3.09 5.03,7.68 9.4,13.49 10.07,-9.16 20.21,-23.89 29.94,-43.93 9.87,-20.35 18.87,-40.85 26.35,-61.55 7.62,-21.06 12.85,-37.43 16.03,-48.95 -0.53,-5.72 1.33,-10.64 5.43,-14.78 4.11,-4.13 9.4,-6.79 16.29,-7.19 6.75,-0.39 12.7,1.41 17.62,4.93 5.14,3.67 9.34,8.44 8.74,14.18 -2.86,27.36 -12.9,55.38 -25.17,84.7 -12.36,29.57 -25.81,56.23 -42.64,79.29 -25.03,34.28 -49.77,44.93 -72.06,33.88 -22.61,-11.21 -37.05,-33.71 -43.44,-68.45 -5.79,-31.45 -13.75,-58.36 -23.45,-80.57 -6.99,-16.01 -13.52,-34.65 -19.07,-55.74 -1.48,-5.62 0.31,-10.59 4.11,-15.47 3.49,-4.49 8.46,-7.66 15.49,-8.86 6.75,-1.16 12.68,-0.03 18.02,3.05 5.25,3.03 8.42,7.24 10.06,13.1zm257.49 24.53c0,7.28 0.11,20.88 0.39,41.07 0.25,17.73 0.87,36.64 1.06,57.02 0.2,20.29 0.2,38.22 0.27,53.39 0.07,15.36 -0.18,24.34 -0.79,27.18 -0.98,4.55 -1.94,7.91 -3.05,10.05 -1.14,2.19 -2.63,3.69 -4.51,4.63 -1.69,0.84 -4.37,1.68 -7.68,2.56 -2.25,0.59 -5.16,1.38 -8.61,2.26 -2.91,-0.98 -5.42,-2 -7.55,-2.66 -5.55,-1.7 -9.56,-3.52 -12.05,-5.81 -2.54,-2.33 -4.41,-6.49 -4.5,-12.7 -0.44,-29.75 -0.53,-59.39 -0.93,-89.14 -0.4,-29.84 -0.15,-59.49 -0.26,-89.53 -0.02,-5.61 2.48,-10.37 7.02,-14.18 4.6,-3.88 10.33,-5.81 17.08,-5.52 6.62,0.29 12.35,2.53 17.22,6.8 4.67,4.1 6.89,9.06 6.89,14.58zm-32.32 -103.52c0.93,-0.39 1.41,-1.05 2.12,-1.48 5.52,-3.32 11.53,-4.59 18.01,-3.64 6.24,0.92 12.39,3.19 16.29,8.37 13.38,17.75 12.08,35.81 -4.1,49.94 -12.07,10.53 -24.79,13.27 -35.76,10.63 -11.15,-2.68 -19.47,-8.67 -25.04,-17.63 -5.56,-8.96 -6.49,-18.22 -2.78,-27.48 3.71,-9.25 14.31,-15.56 31.26,-18.71zm247.02 36.64c3.33,19.47 6.74,36.52 9.93,51.61 4.36,20.56 7.78,40.96 10.47,60.37 2.74,19.79 3.98,43.24 4.1,70.62 0.02,3.25 -0.12,6.31 0,8.97 0.14,2.86 0.2,5.41 0.14,7.68 -0.07,2.46 0,4.33 0,6.3 0,1.78 0,3.45 0,4.83 0,1.48 0,2.85 0,4.04 0,0.98 0,1.87 0,2.56 0,0.79 0,1.47 0,1.97 0,0.69 0,1.18 0,1.38 0,0.09 0,0.39 0,0.49 0,0.29 0,0.29 0,0.29 0,0 0,0 0,0 0,-0.29 0,-0.29 0,-0.39 0,0 0,-0.3 0,-0.3 0,-0.09 0,-0.09 0,-0.09 0,-0.2 0,0 0,0 0,0.09 0,0.39 0,0.98 0,0.49 -0.14,1.18 -0.14,1.87 0,0.79 0,1.87 0,3.15 0,2.07 -0.59,4.93 0.27,8.18 1.55,5.89 1.85,10.84 -1.19,15.56 -3.06,4.74 -7.68,7.81 -14.31,9.06 -2.24,0.43 -4.77,0.59 -7.15,0.3 -23.58,13.69 -50.57,15.46 -81.06,5.81 -30.83,-9.76 -55.68,-25.46 -74.57,-48.85 -18.73,-23.2 -23.42,-49.53 -10.33,-77.42 11.44,-24.37 31.37,-37.57 56.16,-41.56 24.74,-3.99 50.99,-2.66 78.67,3.74 -3.04,-17.93 -6.72,-35.96 -10.73,-54.66 -3.54,-16.56 -7.21,-32.65 -9.4,-47.77 -0.86,-5.97 1.33,-10.83 5.7,-14.68 4.11,-3.63 9.8,-5.81 16.82,-5.61 7.03,0.2 13.05,2.27 18.14,6.4 5.11,4.15 7.44,9.12 8.48,15.17zm-23.84 215.8c-0.4,-12.51 -0.6,-24.82 -0.4,-36.74 0.19,-11.03 -0.13,-22.75 -0.66,-34.97 -10.6,-3.05 -22.93,-5.15 -37.22,-6.79 -14.06,-1.61 -26.76,-0.89 -38.01,2.66 -11.26,3.54 -18.33,11.82 -19.74,24.52 -1.77,15.99 4.31,29.37 16.03,40.58 11.86,11.35 25.2,18.77 40.4,22.26 15.26,3.5 27.68,1.77 37.21,-5.81 0.53,-2.07 1.33,-3.94 2.39,-5.71zm88.74 -108.64c15.47,-6.87 29.55,-11.46 43.44,-13.1 13.65,-1.61 30.85,0.94 50.34,8.86 23.17,9.42 38.7,26.98 47.81,50.73 9.03,23.53 14.17,47.66 15.36,72.78 1.19,24.92 0.67,45.7 -0.66,61.66 0.14,-0.59 0.27,-1.18 0.53,-1.77 0,0.49 -0.03,0.91 0.13,1.37 2.1,5.97 1.88,10.87 -0.52,15.07 -2.5,4.37 -6.59,7.17 -12.45,7.88 -6.2,0.76 -12.05,-0.8 -17.75,-4.03 -5.42,-3.08 -9.56,-7.38 -12.06,-13.3 -0.28,-0.68 -0.53,-1.38 -0.53,-2.07 -32.71,5.71 -65.56,0.2 -96.95,-18.42 -29.56,-17.53 -41.61,-37.63 -37.75,-58.3 3.82,-20.49 17.65,-36.86 41.33,-48.07 23.74,-11.24 51.25,-11.23 82.12,0 -3.71,-13.49 -10.14,-22.62 -19.34,-26 -12.79,-4.7 -23.18,-6.01 -30.86,-4.83 -7.69,1.19 -15.98,3.78 -24.37,7.88 -2.08,1.02 -4.32,2.24 -6.63,2.96 -5.91,1.84 -12.01,1.27 -18.01,-1.18 -6.05,-2.48 -10.67,-6.53 -13.38,-11.72 -2.99,-5.75 -3.63,-11.06 -1.59,-16.06 2.06,-5.05 6.17,-7.84 11.79,-10.34zm110.86 136.12c-0.26,-10.15 -0.53,-20.39 -1.32,-30.83 -13.51,-6.6 -27.03,-10.32 -40.93,-11.92 -14.31,-1.65 -27,1.84 -36.69,11.82 -8.88,9.15 -6.89,18.13 4.11,25.41 10.85,7.19 24.63,11.84 40.53,13.59 16.29,1.8 27.42,-0.69 34.3,-8.07z"/>
   </g>
   <path id="1" class="fil1" d="M122.38 138.41c-0.84,26.48 -0.03,49.86 1.32,70.42 2.36,35.89 1.21,78.85 -7.28,128.33 -3.04,17.72 -3.62,27.75 0.26,30.73 4.07,3.13 15.89,2.61 36.69,-1.18 5.16,-0.94 11.37,-1.94 18.01,-2.76 16.54,-2.03 33.12,-5.31 49.14,-10.24 6.23,-4.14 12.73,-6.3 19.61,-5.81 6.89,0.49 12.51,3.1 16.55,8.27 4.04,5.17 5.1,10.92 3.71,17.24 -1.39,6.29 -4.75,12.16 -11.26,15.95 -7.72,4.51 -14.8,6.98 -19.73,9.07 -4.87,2.05 -9.8,3.46 -15.37,4.62 -5.29,1.11 -12.51,2.12 -21.45,3.94 -47.49,9.7 -82.31,11.59 -104.11,4.44 -21.11,-6.93 -28.46,-30.86 -21.99,-72.59 7.04,-45.34 8.71,-85.48 6.89,-120.16 -1.23,-23.43 -2.11,-49.47 -0.93,-78.4 0.28,-6.7 4.81,-12.43 10.34,-17.14 5.33,-4.55 12.05,-7.14 19.07,-7.49 6.89,-0.34 12.46,1.57 16.29,6.11 3.72,4.42 4.46,9.77 4.24,16.65zm175.23 78.3c15.3,-10.66 29.31,-19 43.31,-24.13 13.95,-5.11 31.29,-7.23 51.52,-4.93 23.89,2.72 40.42,15.26 50.34,36.35 9.81,20.87 15.08,44.13 16.55,69.83 1.45,25.32 1.59,46.88 0.27,63.92 0.13,-0.69 0.26,-1.28 0.53,-2.07 0,0.49 0.1,1 0.26,1.38 2.35,5.43 2.14,10.65 -0.26,15.86 -2.37,5.13 -6.58,9.17 -12.85,11.72 -6.31,2.57 -12.6,2.93 -18.28,1.28 -5.85,-1.7 -10.22,-5.21 -12.85,-10.64 -0.28,-0.58 -0.53,-1.18 -0.53,-1.87 -33.51,13.98 -66.65,16.22 -98.94,4.63 -29.72,-10.67 -42.52,-27.98 -38.94,-49.45 3.57,-21.37 17.31,-40.64 40.93,-57.61 23.66,-17.01 51.79,-24.23 83.58,-21.57 -3.98,-12.61 -10.97,-19.92 -20.53,-20.88 -12.96,-1.31 -23.23,0.41 -31.26,3.64 -7.87,3.17 -16.3,7.69 -24.64,13.89 -2,1.49 -4.22,3.17 -6.62,4.53 -5.95,3.37 -12.05,4.49 -18.15,3.45 -5.95,-1.03 -10.73,-3.86 -13.64,-8.47 -3.05,-4.85 -3.54,-10.14 -1.59,-15.57 2.02,-5.6 6.14,-9.36 11.79,-13.29zm114.17 108.54c-0.39,-10.35 -0.92,-20.59 -1.72,-31.03 -14.04,-2.95 -28.23,-3.27 -42.25,-1.28 -14.45,2.05 -27.4,8.65 -37.09,21.08 -8.74,11.22 -6.48,19.69 4.77,24.52 11,4.72 25.03,5.98 41.19,3.84 16.56,-2.19 28.08,-7.68 35.1,-17.13zm232.98 -172.76c4.98,17.78 11.31,35.45 18.68,52.69 9.85,23.05 17.59,46.08 22.12,69.44 1.69,8.75 2.24,15.37 2.38,19.5 0.13,3.65 0.72,6.52 1.33,8.97 0.58,2.38 1.78,4.96 3.84,8.27 1.92,3.09 5.03,7.68 9.4,13.49 10.07,-9.16 20.21,-23.89 29.94,-43.93 9.87,-20.35 18.87,-40.85 26.35,-61.55 7.62,-21.06 12.85,-37.43 16.03,-48.95 -0.53,-5.72 1.33,-10.64 5.43,-14.78 4.11,-4.13 9.4,-6.79 16.29,-7.19 6.75,-0.39 12.7,1.41 17.62,4.93 5.14,3.67 9.34,8.44 8.74,14.18 -2.86,27.36 -12.9,55.38 -25.17,84.7 -12.36,29.57 -25.81,56.23 -42.64,79.29 -25.03,34.28 -49.77,44.93 -72.06,33.88 -22.61,-11.21 -37.05,-33.71 -43.44,-68.45 -5.79,-31.45 -13.75,-58.36 -23.45,-80.57 -6.99,-16.01 -13.52,-34.65 -19.07,-55.74 -1.48,-5.62 0.31,-10.59 4.11,-15.47 3.49,-4.49 8.46,-7.66 15.49,-8.86 6.75,-1.16 12.68,-0.03 18.02,3.05 5.25,3.03 8.42,7.24 10.06,13.1zm257.49 24.53c0,7.28 0.11,20.88 0.39,41.07 0.25,17.73 0.87,36.64 1.06,57.02 0.2,20.29 0.2,38.22 0.27,53.39 0.07,15.36 -0.18,24.34 -0.79,27.18 -0.98,4.55 -1.94,7.91 -3.05,10.05 -1.14,2.19 -2.63,3.69 -4.51,4.63 -1.69,0.84 -4.37,1.68 -7.68,2.56 -2.25,0.59 -5.16,1.38 -8.61,2.26 -2.91,-0.98 -5.42,-2 -7.55,-2.66 -5.55,-1.7 -9.56,-3.52 -12.05,-5.81 -2.54,-2.33 -4.41,-6.49 -4.5,-12.7 -0.44,-29.75 -0.53,-59.39 -0.93,-89.14 -0.4,-29.84 -0.15,-59.49 -0.26,-89.53 -0.02,-5.61 2.48,-10.37 7.02,-14.18 4.6,-3.88 10.33,-5.81 17.08,-5.52 6.62,0.29 12.35,2.53 17.22,6.8 4.67,4.1 6.89,9.06 6.89,14.58zm-32.32 -103.52c0.93,-0.39 1.41,-1.05 2.12,-1.48 5.52,-3.32 11.53,-4.59 18.01,-3.64 6.24,0.92 12.39,3.19 16.29,8.37 13.38,17.75 12.08,35.81 -4.1,49.94 -12.07,10.53 -24.79,13.27 -35.76,10.63 -11.15,-2.68 -19.47,-8.67 -25.04,-17.63 -5.56,-8.96 -6.49,-18.22 -2.78,-27.48 3.71,-9.25 14.31,-15.56 31.26,-18.71zm247.02 36.64c3.33,19.47 6.74,36.52 9.93,51.61 4.36,20.56 7.78,40.96 10.47,60.37 2.74,19.79 3.98,43.24 4.1,70.62 0.02,3.25 -0.12,6.31 0,8.97 0.14,2.86 0.2,5.41 0.14,7.68 -0.07,2.46 0,4.33 0,6.3 0,1.78 0,3.45 0,4.83 0,1.48 0,2.85 0,4.04 0,0.98 0,1.87 0,2.56 0,0.79 0,1.47 0,1.97 0,0.69 0,1.18 0,1.38 0,0.09 0,0.39 0,0.49 0,0.29 0,0.29 0,0.29 0,0 0,0 0,0 0,-0.29 0,-0.29 0,-0.39 0,0 0,-0.3 0,-0.3 0,-0.09 0,-0.09 0,-0.09 0,-0.2 0,0 0,0 0,0.09 0,0.39 0,0.98 0,0.49 -0.14,1.18 -0.14,1.87 0,0.79 0,1.87 0,3.15 0,2.07 -0.59,4.93 0.27,8.18 1.55,5.89 1.85,10.84 -1.19,15.56 -3.06,4.74 -7.68,7.81 -14.31,9.06 -2.24,0.43 -4.77,0.59 -7.15,0.3 -23.58,13.69 -50.57,15.46 -81.06,5.81 -30.83,-9.76 -55.68,-25.46 -74.57,-48.85 -18.73,-23.2 -23.42,-49.53 -10.33,-77.42 11.44,-24.37 31.37,-37.57 56.16,-41.56 24.74,-3.99 50.99,-2.66 78.67,3.74 -3.04,-17.93 -6.72,-35.96 -10.73,-54.66 -3.54,-16.56 -7.21,-32.65 -9.4,-47.77 -0.86,-5.97 1.33,-10.83 5.7,-14.68 4.11,-3.63 9.8,-5.81 16.82,-5.61 7.03,0.2 13.05,2.27 18.14,6.4 5.11,4.15 7.44,9.12 8.48,15.17zm-23.84 215.8c-0.4,-12.51 -0.6,-24.82 -0.4,-36.74 0.19,-11.03 -0.13,-22.75 -0.66,-34.97 -10.6,-3.05 -22.93,-5.15 -37.22,-6.79 -14.06,-1.61 -26.76,-0.89 -38.01,2.66 -11.26,3.54 -18.33,11.82 -19.74,24.52 -1.77,15.99 4.31,29.37 16.03,40.58 11.86,11.35 25.2,18.77 40.4,22.26 15.26,3.5 27.68,1.77 37.21,-5.81 0.53,-2.07 1.33,-3.94 2.39,-5.71zm88.74 -108.64c15.47,-6.87 29.55,-11.46 43.44,-13.1 13.65,-1.61 30.85,0.94 50.34,8.86 23.17,9.42 38.7,26.98 47.81,50.73 9.03,23.53 14.17,47.66 15.36,72.78 1.19,24.92 0.67,45.7 -0.66,61.66 0.14,-0.59 0.27,-1.18 0.53,-1.77 0,0.49 -0.03,0.91 0.13,1.37 2.1,5.97 1.88,10.87 -0.52,15.07 -2.5,4.37 -6.59,7.17 -12.45,7.88 -6.2,0.76 -12.05,-0.8 -17.75,-4.03 -5.42,-3.08 -9.56,-7.38 -12.06,-13.3 -0.28,-0.68 -0.53,-1.38 -0.53,-2.07 -32.71,5.71 -65.56,0.2 -96.95,-18.42 -29.56,-17.53 -41.61,-37.63 -37.75,-58.3 3.82,-20.49 17.65,-36.86 41.33,-48.07 23.74,-11.24 51.25,-11.23 82.12,0 -3.71,-13.49 -10.14,-22.62 -19.34,-26 -12.79,-4.7 -23.18,-6.01 -30.86,-4.83 -7.69,1.19 -15.98,3.78 -24.37,7.88 -2.08,1.02 -4.32,2.24 -6.63,2.96 -5.91,1.84 -12.01,1.27 -18.01,-1.18 -6.05,-2.48 -10.67,-6.53 -13.38,-11.72 -2.99,-5.75 -3.63,-11.06 -1.59,-16.06 2.06,-5.05 6.17,-7.84 11.79,-10.34zm110.86 136.12c-0.26,-10.15 -0.53,-20.39 -1.32,-30.83 -13.51,-6.6 -27.03,-10.32 -40.93,-11.92 -14.31,-1.65 -27,1.84 -36.69,11.82 -8.88,9.15 -6.89,18.13 4.11,25.41 10.85,7.19 24.63,11.84 40.53,13.59 16.29,1.8 27.42,-0.69 34.3,-8.07z"/>
   <g>
    <path class="fil0 str0" d="M543.17 419.31c3.74,17.19 7.46,32.39 11.13,45.5 5.07,18.11 9.31,36.1 13.24,53.48 4.01,17.68 7.63,38.72 10.34,63.53 0.33,3.06 0.54,5.83 1.06,8.27 0.54,2.59 0.95,4.92 1.19,6.8 0.29,2.36 0.37,4.04 0.66,5.91 0.24,1.58 0.28,3.15 0.4,4.33 0.14,1.38 0.33,2.56 0.39,3.65 0.07,0.98 0.21,1.76 0.27,2.36 0.07,0.68 0.08,1.38 0.13,1.77 0.08,0.6 0.13,1.09 0.13,1.18 0,0.2 -0.06,0.41 0,0.59 0.08,0.23 0.14,0.2 0.14,0.2 0,0 0,0 0,0 -0.14,-0.2 -0.14,-0.2 -0.14,-0.39 0,0 0,-0.2 0,-0.2 0,-0.2 0,-0.2 0,-0.2 0,-0.09 0,0 0,0 0,0.2 0.06,0.39 0.14,0.99 0.05,0.39 0.06,0.99 0.13,1.67 0.07,0.7 0.29,1.68 0.4,2.96 0.15,1.77 -0.03,4.49 1.06,7.29 1.99,5.15 2.53,9.6 0.39,14.38 -2.09,4.68 -5.94,8.13 -11.52,10.24 -1.97,0.74 -4.11,1.18 -6.36,1.28 -18.94,15.86 -42.11,21.11 -69.27,16.55 -27.41,-4.6 -50.79,-16.09 -70.46,-34.97 -19.54,-18.74 -27.83,-42.09 -19.74,-68.94 7.16,-23.74 23.56,-38.16 45.17,-45.01 21.57,-6.84 45.03,-9.07 70.2,-7.19 -3.85,-15.86 -8.46,-31.82 -13.12,-48.07 -4.21,-14.68 -7.93,-28.8 -10.59,-42.25 -1.05,-5.28 0.96,-10.11 4.63,-14.09 3.61,-3.9 8.86,-6.76 15.1,-7.48 6.61,-0.76 11.9,0.22 16.56,3.25 4.75,3.08 7.18,7.24 8.34,12.61zm-4.1 199.64c-1.86,-11.42 -3.55,-22.56 -4.64,-33.29 -1.03,-10.15 -2.65,-20.68 -4.24,-31.81 -9.93,-1.28 -21.19,-1.53 -34.04,-1.18 -12.58,0.34 -23.69,2.99 -33.24,7.68 -9.52,4.66 -14.85,13.1 -14.44,24.92 0.51,14.52 7.72,26.13 19.34,34.86 11.82,8.89 24.51,13.74 38.14,14.87 13.65,1.14 24.24,-2.46 31.79,-10.63 0.14,-1.87 0.67,-3.55 1.33,-5.42zm133.64 -89.53c-9.8,0.1 -17.26,2.13 -22.25,6.9 -4.81,4.58 -8.98,13.84 -11.39,28.16 -2.49,14.84 3.43,28.14 15.89,39.79 12.31,11.5 25.56,16.82 40.27,15.76 14.16,-1.01 24.07,-12.88 28.61,-36.24 2.21,-11.41 1.56,-20.72 -2.39,-27.48 -3.87,-6.64 -12.57,-10.68 -26.22,-11.03 -5.57,-0.14 -10.31,-1.41 -14.31,-4.24 -4.35,-3.08 -7.02,-6.79 -8.21,-11.62zm56.29 -14.97c24.9,12.71 37.75,31.91 38.81,57.22 1.06,25.41 -5.95,47.12 -22.65,63.53 -20.4,20.05 -43.4,26.49 -67.55,21.47 -24.2,-5.02 -44.28,-16.91 -61.06,-36.44 -16.73,-19.48 -24.09,-41.28 -19.73,-64.91 5.45,-29.57 17.57,-47.58 33.77,-54.27 16.25,-6.7 40,-9.42 72.19,-8.37 0.79,0.03 1.98,0.02 2.91,0 6.23,-0.08 11.21,1.45 15.63,4.73 4.59,3.41 7.06,7.68 7.68,13 0.17,1.47 0,2.76 0,4.04zm101.33 -15.76c-0.8,2.17 -1.72,4.33 -2.25,7.09 26.35,-9.45 54.06,-10.74 82.38,-3.44 28.24,7.27 47.43,24.01 55.23,50.03 4.52,15.08 6.03,28.75 6.89,40.78 0.86,12.01 0.99,25.01 0.53,39.29 -0.07,2.17 -0.02,4.14 -0.13,6.31 -0.28,5.13 -2.53,9.35 -6.76,12.9 -3.98,3.34 -9,4.77 -14.7,4.43 -5.96,-0.35 -10.57,-2.29 -14.7,-6.2 -4.08,-3.87 -5.96,-8.38 -5.7,-13.5 0.13,-2.56 0.27,-5.11 0.27,-7.58 0,-13.1 -0.27,-24.83 -1.06,-35.56 -0.8,-10.74 -2.7,-23.15 -6.89,-37.13 -3.22,-10.75 -12.44,-17.32 -26.49,-19.5 -13.89,-2.15 -27.84,-1.69 -41.59,1.58 -14.07,3.33 -22.69,7.87 -25.03,13.59 -1.39,3.39 -2.92,6.5 -5.7,8.57 0.27,16.64 2.32,32.19 5.17,46.58 2.84,14.37 6.48,25.09 12.58,30.44 4.3,3.77 7.75,7.1 8.74,12.01 1,4.94 0.09,9.63 -3.44,13.89 -3.49,4.21 -7.83,6.71 -13.51,7.59 -5.18,0.79 -10.77,0.22 -15.23,-3.25 -14.9,-11.61 -24.65,-31.48 -31.26,-58.41 -6.64,-27.05 -9.41,-53.88 -7.55,-80.76 1.85,-26.71 8.25,-46.61 20.13,-57.62 4.32,-4 9.92,-4.6 15.76,-3.94 5.55,0.62 10.8,2.59 14.84,6.7 3.9,3.97 5.88,8.47 5.69,13 -0.2,4.84 -2.25,8.86 -6.22,12.11zm310.99 -63.23c3.03,17.56 6.14,33.05 9.14,46.59 4.15,18.67 7.44,37.03 10.2,54.76 2.8,18.02 3.96,39.2 3.84,64.02 -0.01,3.05 -0.13,5.81 -0.13,8.17 0,2.57 -0.07,4.92 -0.14,7 -0.07,2.26 -0.05,3.93 -0.13,5.81 -0.06,1.47 -0.2,3.04 -0.26,4.33 -0.07,1.38 -0.12,2.56 -0.27,3.64 -0.12,0.89 0,1.68 -0.13,2.37 -0.13,0.69 -0.13,1.28 -0.13,1.67 0,0.59 -0.07,1.1 -0.13,1.28 -0.08,0.23 -0.14,0.4 -0.14,0.59 0,0.2 0,0.2 0,0.2 0,0 0,0 0,0 0,-0.2 0,-0.2 0,-0.39 0,0 0,-0.2 0,-0.2 0.14,-0.2 0.14,-0.2 0.14,-0.2 0,-0.19 0,0 0,0 -0.14,0.2 -0.05,0.4 -0.14,0.99 -0.04,0.32 -0.07,0.89 -0.13,1.57 -0.07,0.8 -0.15,1.68 -0.26,2.96 -0.16,1.77 -0.8,4.38 -0.27,7.39 0.93,5.24 0.44,9.78 -2.65,14.18 -3,4.27 -7.28,6.99 -13.24,8.17 -1.99,0.4 -4.24,0.59 -6.36,0.3 -21.99,12.41 -45.91,13.74 -71.26,4.73 -25.91,-9.21 -46.34,-24.34 -61.99,-45.61 -15.87,-21.58 -20.38,-45.29 -9.4,-70.42 9.58,-21.91 26.74,-33.59 48.61,-36.83 21.97,-3.26 45.56,-1.58 70.2,4.43 -2.92,-16.25 -6.63,-32.77 -10.47,-49.64 -3.44,-15.14 -6.66,-29.72 -8.74,-43.44 -0.83,-5.49 1.29,-9.74 5.17,-13.29 3.54,-3.25 8.75,-5.32 15.1,-5.03 6.38,0.3 11.44,2.41 16.02,6.11 4.69,3.78 7,8.3 7.95,13.79zm-20.66 195.6c0.13,-11.42 0.38,-22.45 0.79,-33.29 0.38,-10.04 0,-20.58 -0.66,-31.81 -9.4,-2.76 -20.54,-4.85 -33.24,-6.6 -12.33,-1.69 -23.71,-1.06 -33.51,1.97 -9.93,3.07 -16.1,10.45 -17.22,21.97 -1.4,14.42 3.88,26.64 13.9,37.23 9.85,10.39 21.33,17.43 34.44,20.78 13.11,3.35 24.11,1.67 33.11,-5.22 0.53,-1.68 1.46,-3.35 2.39,-5.03zm101.72 -51.6c8.88,-0.3 19.86,-0.95 32.98,-1.97 13.37,-1.05 25.17,-2.67 35.5,-4.93 10.33,-2.26 15.63,-5.22 16.02,-9.55 -2.51,-3.55 -9.82,-6.82 -22.12,-9.75 -12.07,-2.88 -24.37,-2.87 -36.95,0.29 -12.45,3.14 -20.93,12.02 -25.43,25.91zm3.58 37.13c6.22,12.41 15.02,21.53 27.55,27.57 12.37,5.97 24.77,8.87 37.08,9.26 12.32,0.4 21.55,-1.66 27.42,-6.4 0.37,-0.3 0.53,-0.59 0.53,-0.59 0,-0.2 0,-0.39 0.13,-0.59 0.14,-0.1 0.14,-0.1 0.14,-0.1 0.52,-5.22 2.62,-9.29 6.62,-12.31 4.08,-3.09 9.03,-4.37 14.83,-3.55 6,0.85 10.28,3.79 14.04,7.78 3.66,3.89 6.69,8.75 5.3,13.69 -6.46,22.95 -24.12,34.47 -48.87,37.04 -24.65,2.55 -48.01,0.34 -69.67,-8.18 -17.68,-6.94 -31.93,-18.51 -43.05,-34.08 -11.4,-15.95 -18.02,-32.65 -18.94,-50.62 -1.6,-31.39 7.48,-53.48 26.75,-65.89 19.27,-12.41 41.1,-17.55 66.36,-14.78 24.94,2.74 45.32,11.25 60.93,24.73 15.65,13.51 20.57,29.74 11.26,46.48 -7.84,14.11 -26.14,21.29 -50.07,24.92 -24.68,3.75 -47.55,5.91 -68.34,5.62z"/>
   </g>
   <path id="1" class="fil1" d="M543.17 419.31c3.74,17.19 7.46,32.39 11.13,45.5 5.07,18.11 9.31,36.1 13.24,53.48 4.01,17.68 7.63,38.72 10.34,63.53 0.33,3.06 0.54,5.83 1.06,8.27 0.54,2.59 0.95,4.92 1.19,6.8 0.29,2.36 0.37,4.04 0.66,5.91 0.24,1.58 0.28,3.15 0.4,4.33 0.14,1.38 0.33,2.56 0.39,3.65 0.07,0.98 0.21,1.76 0.27,2.36 0.07,0.68 0.08,1.38 0.13,1.77 0.08,0.6 0.13,1.09 0.13,1.18 0,0.2 -0.06,0.41 0,0.59 0.08,0.23 0.14,0.2 0.14,0.2 0,0 0,0 0,0 -0.14,-0.2 -0.14,-0.2 -0.14,-0.39 0,0 0,-0.2 0,-0.2 0,-0.2 0,-0.2 0,-0.2 0,-0.09 0,0 0,0 0,0.2 0.06,0.39 0.14,0.99 0.05,0.39 0.06,0.99 0.13,1.67 0.07,0.7 0.29,1.68 0.4,2.96 0.15,1.77 -0.03,4.49 1.06,7.29 1.99,5.15 2.53,9.6 0.39,14.38 -2.09,4.68 -5.94,8.13 -11.52,10.24 -1.97,0.74 -4.11,1.18 -6.36,1.28 -18.94,15.86 -42.11,21.11 -69.27,16.55 -27.41,-4.6 -50.79,-16.09 -70.46,-34.97 -19.54,-18.74 -27.83,-42.09 -19.74,-68.94 7.16,-23.74 23.56,-38.16 45.17,-45.01 21.57,-6.84 45.03,-9.07 70.2,-7.19 -3.85,-15.86 -8.46,-31.82 -13.12,-48.07 -4.21,-14.68 -7.93,-28.8 -10.59,-42.25 -1.05,-5.28 0.96,-10.11 4.63,-14.09 3.61,-3.9 8.86,-6.76 15.1,-7.48 6.61,-0.76 11.9,0.22 16.56,3.25 4.75,3.08 7.18,7.24 8.34,12.61zm-4.1 199.64c-1.86,-11.42 -3.55,-22.56 -4.64,-33.29 -1.03,-10.15 -2.65,-20.68 -4.24,-31.81 -9.93,-1.28 -21.19,-1.53 -34.04,-1.18 -12.58,0.34 -23.69,2.99 -33.24,7.68 -9.52,4.66 -14.85,13.1 -14.44,24.92 0.51,14.52 7.72,26.13 19.34,34.86 11.82,8.89 24.51,13.74 38.14,14.87 13.65,1.14 24.24,-2.46 31.79,-10.63 0.14,-1.87 0.67,-3.55 1.33,-5.42zm133.64 -89.53c-9.8,0.1 -17.26,2.13 -22.25,6.9 -4.81,4.58 -8.98,13.84 -11.39,28.16 -2.49,14.84 3.43,28.14 15.89,39.79 12.31,11.5 25.56,16.82 40.27,15.76 14.16,-1.01 24.07,-12.88 28.61,-36.24 2.21,-11.41 1.56,-20.72 -2.39,-27.48 -3.87,-6.64 -12.57,-10.68 -26.22,-11.03 -5.57,-0.14 -10.31,-1.41 -14.31,-4.24 -4.35,-3.08 -7.02,-6.79 -8.21,-11.62zm56.29 -14.97c24.9,12.71 37.75,31.91 38.81,57.22 1.06,25.41 -5.95,47.12 -22.65,63.53 -20.4,20.05 -43.4,26.49 -67.55,21.47 -24.2,-5.02 -44.28,-16.91 -61.06,-36.44 -16.73,-19.48 -24.09,-41.28 -19.73,-64.91 5.45,-29.57 17.57,-47.58 33.77,-54.27 16.25,-6.7 40,-9.42 72.19,-8.37 0.79,0.03 1.98,0.02 2.91,0 6.23,-0.08 11.21,1.45 15.63,4.73 4.59,3.41 7.06,7.68 7.68,13 0.17,1.47 0,2.76 0,4.04zm101.33 -15.76c-0.8,2.17 -1.72,4.33 -2.25,7.09 26.35,-9.45 54.06,-10.74 82.38,-3.44 28.24,7.27 47.43,24.01 55.23,50.03 4.52,15.08 6.03,28.75 6.89,40.78 0.86,12.01 0.99,25.01 0.53,39.29 -0.07,2.17 -0.02,4.14 -0.13,6.31 -0.28,5.13 -2.53,9.35 -6.76,12.9 -3.98,3.34 -9,4.77 -14.7,4.43 -5.96,-0.35 -10.57,-2.29 -14.7,-6.2 -4.08,-3.87 -5.96,-8.38 -5.7,-13.5 0.13,-2.56 0.27,-5.11 0.27,-7.58 0,-13.1 -0.27,-24.83 -1.06,-35.56 -0.8,-10.74 -2.7,-23.15 -6.89,-37.13 -3.22,-10.75 -12.44,-17.32 -26.49,-19.5 -13.89,-2.15 -27.84,-1.69 -41.59,1.58 -14.07,3.33 -22.69,7.87 -25.03,13.59 -1.39,3.39 -2.92,6.5 -5.7,8.57 0.27,16.64 2.32,32.19 5.17,46.58 2.84,14.37 6.48,25.09 12.58,30.44 4.3,3.77 7.75,7.1 8.74,12.01 1,4.94 0.09,9.63 -3.44,13.89 -3.49,4.21 -7.83,6.71 -13.51,7.59 -5.18,0.79 -10.77,0.22 -15.23,-3.25 -14.9,-11.61 -24.65,-31.48 -31.26,-58.41 -6.64,-27.05 -9.41,-53.88 -7.55,-80.76 1.85,-26.71 8.25,-46.61 20.13,-57.62 4.32,-4 9.92,-4.6 15.76,-3.94 5.55,0.62 10.8,2.59 14.84,6.7 3.9,3.97 5.88,8.47 5.69,13 -0.2,4.84 -2.25,8.86 -6.22,12.11zm310.99 -63.23c3.03,17.56 6.14,33.05 9.14,46.59 4.15,18.67 7.44,37.03 10.2,54.76 2.8,18.02 3.96,39.2 3.84,64.02 -0.01,3.05 -0.13,5.81 -0.13,8.17 0,2.57 -0.07,4.92 -0.14,7 -0.07,2.26 -0.05,3.93 -0.13,5.81 -0.06,1.47 -0.2,3.04 -0.26,4.33 -0.07,1.38 -0.12,2.56 -0.27,3.64 -0.12,0.89 0,1.68 -0.13,2.37 -0.13,0.69 -0.13,1.28 -0.13,1.67 0,0.59 -0.07,1.1 -0.13,1.28 -0.08,0.23 -0.14,0.4 -0.14,0.59 0,0.2 0,0.2 0,0.2 0,0 0,0 0,0 0,-0.2 0,-0.2 0,-0.39 0,0 0,-0.2 0,-0.2 0.14,-0.2 0.14,-0.2 0.14,-0.2 0,-0.19 0,0 0,0 -0.14,0.2 -0.05,0.4 -0.14,0.99 -0.04,0.32 -0.07,0.89 -0.13,1.57 -0.07,0.8 -0.15,1.68 -0.26,2.96 -0.16,1.77 -0.8,4.38 -0.27,7.39 0.93,5.24 0.44,9.78 -2.65,14.18 -3,4.27 -7.28,6.99 -13.24,8.17 -1.99,0.4 -4.24,0.59 -6.36,0.3 -21.99,12.41 -45.91,13.74 -71.26,4.73 -25.91,-9.21 -46.34,-24.34 -61.99,-45.61 -15.87,-21.58 -20.38,-45.29 -9.4,-70.42 9.58,-21.91 26.74,-33.59 48.61,-36.83 21.97,-3.26 45.56,-1.58 70.2,4.43 -2.92,-16.25 -6.63,-32.77 -10.47,-49.64 -3.44,-15.14 -6.66,-29.72 -8.74,-43.44 -0.83,-5.49 1.29,-9.74 5.17,-13.29 3.54,-3.25 8.75,-5.32 15.1,-5.03 6.38,0.3 11.44,2.41 16.02,6.11 4.69,3.78 7,8.3 7.95,13.79zm-20.66 195.6c0.13,-11.42 0.38,-22.45 0.79,-33.29 0.38,-10.04 0,-20.58 -0.66,-31.81 -9.4,-2.76 -20.54,-4.85 -33.24,-6.6 -12.33,-1.69 -23.71,-1.06 -33.51,1.97 -9.93,3.07 -16.1,10.45 -17.22,21.97 -1.4,14.42 3.88,26.64 13.9,37.23 9.85,10.39 21.33,17.43 34.44,20.78 13.11,3.35 24.11,1.67 33.11,-5.22 0.53,-1.68 1.46,-3.35 2.39,-5.03zm101.72 -51.6c8.88,-0.3 19.86,-0.95 32.98,-1.97 13.37,-1.05 25.17,-2.67 35.5,-4.93 10.33,-2.26 15.63,-5.22 16.02,-9.55 -2.51,-3.55 -9.82,-6.82 -22.12,-9.75 -12.07,-2.88 -24.37,-2.87 -36.95,0.29 -12.45,3.14 -20.93,12.02 -25.43,25.91zm3.58 37.13c6.22,12.41 15.02,21.53 27.55,27.57 12.37,5.97 24.77,8.87 37.08,9.26 12.32,0.4 21.55,-1.66 27.42,-6.4 0.37,-0.3 0.53,-0.59 0.53,-0.59 0,-0.2 0,-0.39 0.13,-0.59 0.14,-0.1 0.14,-0.1 0.14,-0.1 0.52,-5.22 2.62,-9.29 6.62,-12.31 4.08,-3.09 9.03,-4.37 14.83,-3.55 6,0.85 10.28,3.79 14.04,7.78 3.66,3.89 6.69,8.75 5.3,13.69 -6.46,22.95 -24.12,34.47 -48.87,37.04 -24.65,2.55 -48.01,0.34 -69.67,-8.18 -17.68,-6.94 -31.93,-18.51 -43.05,-34.08 -11.4,-15.95 -18.02,-32.65 -18.94,-50.62 -1.6,-31.39 7.48,-53.48 26.75,-65.89 19.27,-12.41 41.1,-17.55 66.36,-14.78 24.94,2.74 45.32,11.25 60.93,24.73 15.65,13.51 20.57,29.74 11.26,46.48 -7.84,14.11 -26.14,21.29 -50.07,24.92 -24.68,3.75 -47.55,5.91 -68.34,5.62z"/>
   <g>
    <path class="fil0 str0" d="M589.27 812.98c-4.89,-0.67 -11.66,-1.14 -19.74,-1.38 -8.21,-0.25 -15.58,1.09 -21.72,3.84 -6.18,2.77 -9.48,7.81 -8.61,15.76 0.46,4.19 3.73,7.35 9.01,9.75 5.31,2.42 11.76,4.73 19.86,6.9 12.16,3.25 25.31,8.36 38.15,15.56 12.98,7.28 23.85,18.54 29.93,35.55 8.77,24.5 4.68,43.24 -9.14,55.65 -13.59,12.21 -30.32,16.67 -51.52,13.5 -20.91,-3.13 -40.4,-15.09 -55.76,-37.43 -2.97,-4.32 -2.91,-9.36 -1.59,-13.69 1.32,-4.34 4.28,-7.6 8.87,-9.46 4.69,-1.89 9.4,-1.65 14.04,0.2 4.76,1.89 7.6,5.53 10.47,9.95 2.97,4.57 9.39,8.39 18.14,12.11 8.6,3.66 16.6,4.84 23.98,3.65 7.21,-1.17 11.1,-7.04 9.93,-17.34 -1.09,-9.62 -6.3,-16.91 -14.7,-21.76 -8.82,-5.1 -18.92,-9.23 -30.33,-12.51 -14.55,-4.2 -27.36,-10.04 -39.21,-17.44 -12.12,-7.57 -19.59,-19.77 -19.2,-37.03 0.54,-24 12.63,-38.83 32.71,-44.91 19.92,-6.03 41.51,-7.91 64.11,-4.43 5.62,0.86 9.8,3.64 12.58,7.48 2.78,3.84 3.98,8.5 2.78,13.4 -1.19,4.86 -3.91,8.66 -8.21,11.32 -4.44,2.76 -9.66,3.47 -14.83,2.76zm136.82 10.74c-8.61,0 -15.22,2.04 -20,6.69 -4.63,4.51 -9.05,13.89 -12.19,28.27 -3.22,14.78 0.92,28.07 10.47,39.79 9.39,11.53 19.99,17.06 32.18,16.06 11.78,-0.97 20.95,-12.84 27.55,-36.25 3.2,-11.36 3.82,-20.52 1.33,-27.28 -2.41,-6.54 -9.53,-10.74 -21.2,-11.23 -4.76,-0.2 -8.8,-1.55 -11.92,-4.33 -3.5,-3.13 -5.56,-6.9 -6.22,-11.72zm51.12 -14.48c20.27,12.7 28.8,31.8 25.83,57.12 -2.99,25.5 -11.55,47.03 -27.02,63.63 -18.31,19.65 -37.21,26.28 -56.29,21.08 -19.2,-5.24 -34.87,-17.49 -47.95,-36.94 -13.15,-19.56 -18.57,-41.28 -13.51,-64.81 6.33,-29.37 18.12,-47.34 32.98,-53.97 14.94,-6.66 36.42,-9.23 65.17,-8.08 0.67,0.03 1.72,-0.09 2.52,-0.09 5.69,0 10.23,1.44 13.77,4.92 3.48,3.41 5.27,7.78 5.17,13 -0.03,1.48 -0.4,2.76 -0.67,4.14zm81.2 -23.05c0,8.3 2.66,19.82 5.69,34.87 3.06,15.19 7.23,29.63 11.53,43.92 4.31,14.38 8.87,24.53 14.43,30.34 1.19,-0.98 2.39,-2.07 3.71,-2.95 2.39,-7.39 5.02,-15.05 7.42,-23.35 6.47,-22.35 14.07,-43.45 23.84,-62.64 9.83,-19.32 24.2,-30.59 43.71,-31.52 5.3,-0.25 9.4,2.76 12.58,6.7 3.19,3.95 4.29,8.48 3.31,13.59 -0.87,4.54 -3.1,8.31 -6.89,11.53 -3.63,3.08 -7.81,4.82 -12.45,5.22 -4.37,5.32 -9.12,14.09 -14.3,26.88 -5.02,12.42 -10.21,25.66 -15.37,39.8 -6.37,17.47 -11.48,31.29 -16.15,41.86 -13.47,30.41 -27.47,52.01 -41.59,65.59 -13.95,13.41 -34.17,19.57 -61.99,18.72 -4.24,-0.13 -7.83,-1.86 -10.6,-5.52 -2.66,-3.53 -3.84,-8.08 -3.31,-13.2 0.53,-5.12 2.51,-9.36 6.09,-13 3.7,-3.75 7.69,-5.55 12.32,-5.42 16.16,0.46 27.82,-1.58 35.5,-6.69 7.55,-5.03 14.17,-14.29 20.26,-27.78 -11.65,-5.71 -20.89,-18.44 -28.74,-37.62 -7.91,-19.33 -14.32,-39.65 -19.2,-60.87 -4.92,-21.34 -8.52,-37.9 -8.61,-49.35 -0.04,-5.24 2.73,-9.61 6.75,-13.19 4.06,-3.61 8.88,-5.32 14.44,-5.22 5.57,0.09 10.19,1.95 13.64,5.71 3.44,3.73 3.98,8.33 3.98,13.59z"/>
   </g>
   <path id="1" class="fil1" d="M589.27 812.98c-4.89,-0.67 -11.66,-1.14 -19.74,-1.38 -8.21,-0.25 -15.58,1.09 -21.72,3.84 -6.18,2.77 -9.48,7.81 -8.61,15.76 0.46,4.19 3.73,7.35 9.01,9.75 5.31,2.42 11.76,4.73 19.86,6.9 12.16,3.25 25.31,8.36 38.15,15.56 12.98,7.28 23.85,18.54 29.93,35.55 8.77,24.5 4.68,43.24 -9.14,55.65 -13.59,12.21 -30.32,16.67 -51.52,13.5 -20.91,-3.13 -40.4,-15.09 -55.76,-37.43 -2.97,-4.32 -2.91,-9.36 -1.59,-13.69 1.32,-4.34 4.28,-7.6 8.87,-9.46 4.69,-1.89 9.4,-1.65 14.04,0.2 4.76,1.89 7.6,5.53 10.47,9.95 2.97,4.57 9.39,8.39 18.14,12.11 8.6,3.66 16.6,4.84 23.98,3.65 7.21,-1.17 11.1,-7.04 9.93,-17.34 -1.09,-9.62 -6.3,-16.91 -14.7,-21.76 -8.82,-5.1 -18.92,-9.23 -30.33,-12.51 -14.55,-4.2 -27.36,-10.04 -39.21,-17.44 -12.12,-7.57 -19.59,-19.77 -19.2,-37.03 0.54,-24 12.63,-38.83 32.71,-44.91 19.92,-6.03 41.51,-7.91 64.11,-4.43 5.62,0.86 9.8,3.64 12.58,7.48 2.78,3.84 3.98,8.5 2.78,13.4 -1.19,4.86 -3.91,8.66 -8.21,11.32 -4.44,2.76 -9.66,3.47 -14.83,2.76zm136.82 10.74c-8.61,0 -15.22,2.04 -20,6.69 -4.63,4.51 -9.05,13.89 -12.19,28.27 -3.22,14.78 0.92,28.07 10.47,39.79 9.39,11.53 19.99,17.06 32.18,16.06 11.78,-0.97 20.95,-12.84 27.55,-36.25 3.2,-11.36 3.82,-20.52 1.33,-27.28 -2.41,-6.54 -9.53,-10.74 -21.2,-11.23 -4.76,-0.2 -8.8,-1.55 -11.92,-4.33 -3.5,-3.13 -5.56,-6.9 -6.22,-11.72zm51.12 -14.48c20.27,12.7 28.8,31.8 25.83,57.12 -2.99,25.5 -11.55,47.03 -27.02,63.63 -18.31,19.65 -37.21,26.28 -56.29,21.08 -19.2,-5.24 -34.87,-17.49 -47.95,-36.94 -13.15,-19.56 -18.57,-41.28 -13.51,-64.81 6.33,-29.37 18.12,-47.34 32.98,-53.97 14.94,-6.66 36.42,-9.23 65.17,-8.08 0.67,0.03 1.72,-0.09 2.52,-0.09 5.69,0 10.23,1.44 13.77,4.92 3.48,3.41 5.27,7.78 5.17,13 -0.03,1.48 -0.4,2.76 -0.67,4.14zm81.2 -23.05c0,8.3 2.66,19.82 5.69,34.87 3.06,15.19 7.23,29.63 11.53,43.92 4.31,14.38 8.87,24.53 14.43,30.34 1.19,-0.98 2.39,-2.07 3.71,-2.95 2.39,-7.39 5.02,-15.05 7.42,-23.35 6.47,-22.35 14.07,-43.45 23.84,-62.64 9.83,-19.32 24.2,-30.59 43.71,-31.52 5.3,-0.25 9.4,2.76 12.58,6.7 3.19,3.95 4.29,8.48 3.31,13.59 -0.87,4.54 -3.1,8.31 -6.89,11.53 -3.63,3.08 -7.81,4.82 -12.45,5.22 -4.37,5.32 -9.12,14.09 -14.3,26.88 -5.02,12.42 -10.21,25.66 -15.37,39.8 -6.37,17.47 -11.48,31.29 -16.15,41.86 -13.47,30.41 -27.47,52.01 -41.59,65.59 -13.95,13.41 -34.17,19.57 -61.99,18.72 -4.24,-0.13 -7.83,-1.86 -10.6,-5.52 -2.66,-3.53 -3.84,-8.08 -3.31,-13.2 0.53,-5.12 2.51,-9.36 6.09,-13 3.7,-3.75 7.69,-5.55 12.32,-5.42 16.16,0.46 27.82,-1.58 35.5,-6.69 7.55,-5.03 14.17,-14.29 20.26,-27.78 -11.65,-5.71 -20.89,-18.44 -28.74,-37.62 -7.91,-19.33 -14.32,-39.65 -19.2,-60.87 -4.92,-21.34 -8.52,-37.9 -8.61,-49.35 -0.04,-5.24 2.73,-9.61 6.75,-13.19 4.06,-3.61 8.88,-5.32 14.44,-5.22 5.57,0.09 10.19,1.95 13.64,5.71 3.44,3.73 3.98,8.33 3.98,13.59z"/>
   <g>
    <path class="fil0 str0" d="M146.62 500.37c2.74,10.58 5.54,19.85 8.34,27.97 3.82,11.09 7.24,22.23 10.33,33.09 3.14,11.01 6.05,24.02 9.01,39.69 0.35,1.86 0.62,3.66 0.93,5.12 0.35,1.69 0.74,3.14 0.92,4.34 0.21,1.37 0.53,2.56 0.67,3.64 0.12,0.99 0.41,2.08 0.52,2.76 0.16,0.91 0.36,1.69 0.53,2.27 0.22,0.7 0.34,1.08 0.4,1.47 0.08,0.51 0.2,0.87 0.27,1.18 0.06,0.29 0.13,0.6 0.13,0.69 0,0.2 0.04,0.26 0.13,0.4 0.06,0.08 0,0.1 0,0.1 0,0 0,0 0,0 0,-0.1 0,-0.1 -0.13,-0.2 0,0 0,-0.1 0,-0.1 0,-0.2 0,-0.2 0,-0.2 0,-0.09 0,0 0,0 0,0.2 -0.02,0.31 0.13,0.69 0.12,0.31 0.15,0.59 0.27,0.99 0.14,0.49 0.24,1.19 0.39,1.87 0.25,1.09 0.31,2.79 1.2,4.63 1.51,3.14 2.44,6.13 1.45,9.06 -1,2.98 -3.29,5.37 -6.62,6.89 -1.17,0.54 -2.52,0.99 -3.84,1.19 -10.86,10.44 -25.17,14.72 -43.18,12.7 -18.02,-2.02 -33.96,-8.31 -47.42,-19.3 -13.42,-10.97 -19.23,-25.23 -15.1,-42.06 3.7,-15.03 13.48,-24.71 27.02,-29.94 13.22,-5.11 27.69,-7.78 43.85,-7.58 -3.05,-9.85 -6.51,-19.6 -9.94,-29.65 -3.06,-8.96 -6.03,-17.58 -7.95,-25.9 -0.73,-3.21 0.36,-6.34 2.52,-9.06 2.21,-2.79 5.27,-4.67 9.14,-5.42 4.21,-0.82 7.49,-0.45 10.73,1.28 2.86,1.53 4.47,4.18 5.3,7.39zm4.9 125.77c-2.12,-6.99 -3.47,-14 -4.64,-20.78 -1.09,-6.32 -2.52,-12.81 -4.24,-19.7 -6.09,-0.49 -13.24,-0.18 -21.06,0.59 -8.07,0.8 -14.83,2.77 -20.79,6.11 -5.82,3.26 -8.85,8.8 -8.08,16.15 0.95,9.03 5.7,15.95 13.64,20.98 8.08,5.11 16.43,7.78 25.03,7.98 8.88,0.2 15.37,-2.37 19.61,-7.88 0.13,-1.09 0.26,-2.27 0.53,-3.45zm56.29 -46.59c5.69,-1.37 12.59,-3.43 20.93,-6 8.21,-2.55 15.62,-5.43 21.85,-8.47 6.48,-3.17 9.8,-5.82 9.67,-8.77 -2.12,-1.97 -7.02,-2.81 -15.1,-2.76 -7.95,0.05 -15.74,1.93 -23.44,5.71 -7.92,3.9 -12.32,10.74 -13.91,20.29zm7.15 23.05c5.7,6.99 12.97,11.36 22.25,13.49 8.74,2.01 17.21,2.32 25.17,0.79 7.94,-1.52 13.11,-4.23 15.89,-8.27 0.14,-0.2 0.27,-0.3 0.27,-0.3 -0.14,-0.1 -0.14,-0.29 0,-0.49 0,-0.1 0,-0.1 0,-0.1 -0.67,-3.45 -0.01,-6.31 1.98,-8.76 2.25,-2.77 5.29,-4.34 9.01,-4.83 3.83,-0.5 7.33,0.33 10.2,2.27 2.82,1.9 5.34,4.41 5.56,8.07 0.97,15.73 -7.28,26.32 -22.38,31.52 -14.96,5.14 -30.48,6.76 -45.96,4.23 -12.86,-2.1 -24.14,-7.25 -34.31,-15.46 -10.09,-8.14 -17.17,-17.65 -20,-28.96 -4.86,-19.45 -0.74,-34.91 10.47,-45.6 11.3,-10.78 24.64,-17.24 40.92,-19.4 16.44,-2.18 29.92,-0.37 40.93,5.52 11.11,5.93 15.72,15.53 11.39,28.36 -3.64,10.77 -14.16,18.64 -28.87,24.62 -15.09,6.14 -29.01,10.64 -42.52,13.3z"/>
   </g>
   <path id="1" class="fil1" d="M146.62 500.37c2.74,10.58 5.54,19.85 8.34,27.97 3.82,11.09 7.24,22.23 10.33,33.09 3.14,11.01 6.05,24.02 9.01,39.69 0.35,1.86 0.62,3.66 0.93,5.12 0.35,1.69 0.74,3.14 0.92,4.34 0.21,1.37 0.53,2.56 0.67,3.64 0.12,0.99 0.41,2.08 0.52,2.76 0.16,0.91 0.36,1.69 0.53,2.27 0.22,0.7 0.34,1.08 0.4,1.47 0.08,0.51 0.2,0.87 0.27,1.18 0.06,0.29 0.13,0.6 0.13,0.69 0,0.2 0.04,0.26 0.13,0.4 0.06,0.08 0,0.1 0,0.1 0,0 0,0 0,0 0,-0.1 0,-0.1 -0.13,-0.2 0,0 0,-0.1 0,-0.1 0,-0.2 0,-0.2 0,-0.2 0,-0.09 0,0 0,0 0,0.2 -0.02,0.31 0.13,0.69 0.12,0.31 0.15,0.59 0.27,0.99 0.14,0.49 0.24,1.19 0.39,1.87 0.25,1.09 0.31,2.79 1.2,4.63 1.51,3.14 2.44,6.13 1.45,9.06 -1,2.98 -3.29,5.37 -6.62,6.89 -1.17,0.54 -2.52,0.99 -3.84,1.19 -10.86,10.44 -25.17,14.72 -43.18,12.7 -18.02,-2.02 -33.96,-8.31 -47.42,-19.3 -13.42,-10.97 -19.23,-25.23 -15.1,-42.06 3.7,-15.03 13.48,-24.71 27.02,-29.94 13.22,-5.11 27.69,-7.78 43.85,-7.58 -3.05,-9.85 -6.51,-19.6 -9.94,-29.65 -3.06,-8.96 -6.03,-17.58 -7.95,-25.9 -0.73,-3.21 0.36,-6.34 2.52,-9.06 2.21,-2.79 5.27,-4.67 9.14,-5.42 4.21,-0.82 7.49,-0.45 10.73,1.28 2.86,1.53 4.47,4.18 5.3,7.39zm4.9 125.77c-2.12,-6.99 -3.47,-14 -4.64,-20.78 -1.09,-6.32 -2.52,-12.81 -4.24,-19.7 -6.09,-0.49 -13.24,-0.18 -21.06,0.59 -8.07,0.8 -14.83,2.77 -20.79,6.11 -5.82,3.26 -8.85,8.8 -8.08,16.15 0.95,9.03 5.7,15.95 13.64,20.98 8.08,5.11 16.43,7.78 25.03,7.98 8.88,0.2 15.37,-2.37 19.61,-7.88 0.13,-1.09 0.26,-2.27 0.53,-3.45zm56.29 -46.59c5.69,-1.37 12.59,-3.43 20.93,-6 8.21,-2.55 15.62,-5.43 21.85,-8.47 6.48,-3.17 9.8,-5.82 9.67,-8.77 -2.12,-1.97 -7.02,-2.81 -15.1,-2.76 -7.95,0.05 -15.74,1.93 -23.44,5.71 -7.92,3.9 -12.32,10.74 -13.91,20.29zm7.15 23.05c5.7,6.99 12.97,11.36 22.25,13.49 8.74,2.01 17.21,2.32 25.17,0.79 7.94,-1.52 13.11,-4.23 15.89,-8.27 0.14,-0.2 0.27,-0.3 0.27,-0.3 -0.14,-0.1 -0.14,-0.29 0,-0.49 0,-0.1 0,-0.1 0,-0.1 -0.67,-3.45 -0.01,-6.31 1.98,-8.76 2.25,-2.77 5.29,-4.34 9.01,-4.83 3.83,-0.5 7.33,0.33 10.2,2.27 2.82,1.9 5.34,4.41 5.56,8.07 0.97,15.73 -7.28,26.32 -22.38,31.52 -14.96,5.14 -30.48,6.76 -45.96,4.23 -12.86,-2.1 -24.14,-7.25 -34.31,-15.46 -10.09,-8.14 -17.17,-17.65 -20,-28.96 -4.86,-19.45 -0.74,-34.91 10.47,-45.6 11.3,-10.78 24.64,-17.24 40.92,-19.4 16.44,-2.18 29.92,-0.37 40.93,5.52 11.11,5.93 15.72,15.53 11.39,28.36 -3.64,10.77 -14.16,18.64 -28.87,24.62 -15.09,6.14 -29.01,10.64 -42.52,13.3z"/>
   <g>
    <path class="fil2" d="M413.82 356.79c7.99,-8.41 15.1,-16.62 27.54,-18.07 0.06,-0.89 0.14,-0.63 1.37,-2.63 10,11.14 -23.57,19.39 -28.91,20.7zm27.52 -17.73c-0.13,0.24 -0.17,0.45 -0.14,0.82l0.08 0.06c0.03,-0.36 0.04,-0.65 0.06,-0.88z"/>
   </g>
   <path class="fil3" d="M413.82 356.79l21.59 -12.54c10.6,-6.16 7.32,-1.85 7.32,-8.16"/>
   <g>
    <path class="fil2" d="M347.03 221.25c8.97,-14.79 11.48,-16.26 28.12,-10.93 -12.49,6 -14.73,6.93 -28.12,10.93z"/>
   </g>
   <path class="fil3" d="M347.03 221.25c9.93,-8.78 15.87,-10.93 28.12,-10.93"/>
   <g>
    <path class="fil2" d="M108.37 378.67c5.52,2.75 3.33,1.15 6.89,4.34 0.1,2.38 -1.75,1.01 2.49,3.47 -0.56,6.76 -13.42,6.24 -9.38,-7.81z"/>
   </g>
   <path class="fil3" d="M108.37 378.67c2.02,4.6 4.11,11.49 9.38,7.81"/>
   <g>
    <path class="fil2" d="M261.88 547.8c6,-6.26 19.09,5.21 11.72,15.62 -5.38,-4.58 -7.5,-9.86 -11.72,-15.62z"/>
   </g>
   <path class="fil3" d="M261.88 547.8c7.31,-0.63 11.72,10.21 11.72,15.62"/>
   <g>
    <path class="fil2" d="M86.11 630.6c9.59,0.1 8.12,4.03 10.42,4.07 -0.42,0.83 6.82,3.77 7.55,4.14 -11.86,9.29 -14.74,2.59 -17.97,-8.21z"/>
   </g>
   <path class="fil3" d="M86.11 630.6c9.29,5.35 3.35,10.5 17.97,8.21"/>
   <g>
    <path class="fil2" d="M548.58 643.1c2.79,-17.11 -1.08,-10.07 10.94,-21.48 -1.41,16.97 2.06,9.72 -10.94,21.48z"/>
   </g>
   <path class="fil3" d="M548.58 643.1c1.65,-3.26 10.75,-19.02 10.94,-21.48"/>
   <g>
    <path class="fil2" d="M709.9 522.8c16.6,11.08 10.53,3.75 18.35,21.87 -17.12,-10.56 -11.03,-3.24 -18.35,-21.87z"/>
   </g>
   <path class="fil3" d="M709.9 522.8c4.99,5.56 12.89,16.87 18.35,21.87"/>
   <g>
    <path class="fil2" d="M542.72 800.12c-13.81,20.75 -21.1,17.07 -29.15,27.74 -6.25,-0.16 1.2,-24.18 29.15,-27.74z"/>
   </g>
   <path class="fil3" d="M542.72 800.12c-1.31,0.27 -33.58,21.01 -29.15,27.74"/>
   <g>
    <path class="fil2" d="M621.78 903.63c9.31,30.88 -5.31,51.94 -6.64,47.95 2.79,-15.51 -7.14,-17.41 6.64,-47.95z"/>
   </g>
   <path class="fil3" d="M621.78 903.63c-0.02,2.74 -3.18,48.38 -6.64,47.95"/>
   <g>
    <path class="fil2" d="M709.9 915.35c41.18,30.52 23.96,2.06 39.25,10.27 0.13,0.07 0.13,0.13 0.18,0.28 1.8,-2.06 2.54,-1.03 3.97,1.24 0,0 -1.66,2.26 -1.74,2.46l0.06 0.08c0.27,-0.08 0.13,-0.01 0.4,-0.21l0.06 0.08c-15.67,31.81 -34.39,12.99 -42.18,-14.2z"/>
   </g>
   <path class="fil3" d="M709.9 915.35c18.88,31.04 17.98,24.93 39.5,13.52 2.38,-1.26 0.21,-1.89 3.9,-1.73"/>
   <g>
    <polygon class="fil2" points="887.62,913.01 894.95,919.02 894.65,929.8 886.99,922.42 "/>
   </g>
   <path class="fil3" d="M887.62 913.01c0.05,0.07 6.54,14.89 7.03,16.79"/>
   <g>
    <path class="fil2" d="M846.22 785.67c-6.8,11.25 -1.04,5.24 -3.52,18.75 -14.15,-6.49 -7.76,-24.11 3.52,-18.75z"/>
   </g>
   <path class="fil3" d="M846.22 785.67c-11.78,2.42 -6.98,12.53 -3.52,18.75"/>
   <g>
    <path class="fil2" d="M962.61 792.31c6.19,-2.07 10.72,1.37 5.08,9.38 -4.39,-2.59 -2.66,-1.33 -5.38,-3.51 0.3,-1.76 0.07,-3.56 0.3,-5.87z"/>
   </g>
   <path class="fil3" d="M962.61 792.31c3.6,2.4 4.47,4.82 5.08,9.38"/>
   <g>
    <path class="fil2" d="M1145.41 630.99c0.78,11.54 -6.29,28.68 -16.01,25.39 3.46,-9.77 8.63,-18 16.01,-25.39z"/>
   </g>
   <path class="fil3" d="M1145.41 630.99c-1.46,5.42 -9.4,23.56 -16.01,25.39"/>
   <g>
    <path class="fil2" d="M1231.35 541.55c13.63,-16.97 15.36,-14.24 33.59,-10.55 -6.79,5.62 -25.07,8.64 -33.59,10.55z"/>
   </g>
   <path class="fil3" d="M1231.35 541.55c24.01,-16.09 18.72,-5.4 33.59,-10.55"/>
   <g>
    <path class="fil2" d="M1312.59 359.14c5.39,30.92 -21.9,29.72 -16.8,23.43 1.16,0.47 0.7,0.25 1.42,0.62 0.22,-0.17 -0.21,-0.49 -0.31,-0.62 5.71,-3.24 10.57,-16.12 15.69,-23.43z"/>
   </g>
   <path class="fil3" d="M1312.59 359.14c-1.29,7.12 -4.91,24.56 -15.62,25.06 -0.89,0.04 -0.95,-0.73 -1.18,-1.63"/>
   <g>
    <path class="fil2" d="M1203.61 237.66c-4.59,-8.99 5.66,-19.37 15.24,-14.06 -5.01,6.3 -8.56,9.58 -15.24,14.06z"/>
   </g>
   <path class="fil3" d="M1203.61 237.66c0.23,-5.81 8.69,-14.06 15.24,-14.06"/>
   <g>
    <path class="fil2" d="M1112.21 333.36c1.78,16.66 -1.62,28.5 -20.7,26.56 12.31,-11.74 11.05,-10.72 20.7,-26.56z"/>
   </g>
   <path class="fil3" d="M1112.21 333.36c-1.95,13.73 -6.17,22.89 -20.7,26.56"/>
   <g>
    <path class="fil2" d="M888.01 80.25c17.9,2.34 22.66,18.57 11.72,32.03 -3.17,-18.41 -1.1,-16.11 -11.72,-32.03z"/>
   </g>
   <path class="fil3" d="M888.01 80.25c13.02,6.41 16.38,18.54 11.72,32.03"/>
   <g>
    <path class="fil2" d="M795.05 166.96c-1.93,-4.55 9.89,-13.75 21.87,0.78 -11.69,1.92 -12.25,-0.08 -21.87,-0.78z"/>
   </g>
   <path class="fil3" d="M795.05 166.96c3.42,-6.12 17.33,-1.39 21.87,0.78"/>
   <g>
    <path class="fil2" d="M686.07 327.11c7.15,5.81 26.47,18.87 28.9,24.21 -8.12,2.55 -29.17,-8.18 -28.9,-24.21z"/>
   </g>
   <path class="fil3" d="M686.07 327.11c3.98,11.68 14.57,15.37 24.44,22.03 1.97,1.32 2.59,1.2 4.46,2.18"/>
   <g>
    <path class="fil2" d="M867.7 346.25c4.92,1.63 6.69,1.89 8.94,6.74 -0.58,-0.32 -0.47,-0.43 -1.09,-0.36 0,0 5.82,4.16 5.82,4.16 -11.98,8.3 -13.68,-0.27 -13.67,-10.54z"/>
   </g>
   <path class="fil3" d="M867.7 346.25c8.21,9.54 0.92,10.54 13.67,10.54"/>
   <g>
    <path class="fil2" d="M514.21 418.12c10.27,-1.29 10.74,-1.34 18.35,5.86 -9.34,4.63 -13.77,3.86 -18.35,-5.86z"/>
   </g>
   <path class="fil3" d="M514.21 418.12c2.56,2.7 14.25,5.86 18.35,5.86"/>
   <g>
    <path class="fil2" d="M807.16 484.52c2.05,6.33 3.86,14.36 2.73,21.09 -3.33,2.7 -15.68,-11.98 -2.73,-21.09z"/>
   </g>
   <path class="fil3" d="M807.16 484.52c-4.16,7.72 0.29,20.28 2.73,21.09"/>
  </g>
 </g>
</svg>
